<svg width="30" height="30" viewBox="0 0 30 30" fill="none" xmlns="http://www.w3.org/2000/svg">
<path d="M19.6875 3.75H21.5625C22.3084 3.75 23.0238 4.04632 23.5512 4.57376C24.0787 5.10121 24.375 5.81658 24.375 6.5625V25.3125C24.375 26.0584 24.0787 26.7738 23.5512 27.3012C23.0238 27.8287 22.3084 28.125 21.5625 28.125H8.4375C7.69158 28.125 6.97621 27.8287 6.44876 27.3012C5.92132 26.7738 5.625 26.0584 5.625 25.3125V6.5625C5.625 5.81658 5.92132 5.10121 6.44876 4.57376C6.97621 4.04632 7.69158 3.75 8.4375 3.75H10.3125" stroke="black" stroke-width="2" stroke-linejoin="round"/>
<path d="M18.1564 1.875H11.8436C10.998 1.875 10.3125 2.56048 10.3125 3.40605V4.09395C10.3125 4.93952 10.998 5.625 11.8436 5.625H18.1564C19.002 5.625 19.6875 4.93952 19.6875 4.09395V3.40605C19.6875 2.56048 19.002 1.875 18.1564 1.875Z" stroke="black" stroke-width="2" stroke-linejoin="round"/>
</svg>
