<svg width="25" height="25" viewBox="0 0 25 25" fill="none" xmlns="http://www.w3.org/2000/svg">
<mask id="mask0_151_2011" style="mask-type:alpha" maskUnits="userSpaceOnUse" x="0" y="0" width="25" height="25">
<rect x="0.618774" y="0.485229" width="24" height="24" fill="#D9D9D9"/>
</mask>
<g mask="url(#mask0_151_2011)">
<path d="M7.61877 17.4852H14.6188V15.4852H7.61877V17.4852ZM7.61877 13.4852H17.6188V11.4852H7.61877V13.4852ZM7.61877 9.48523H17.6188V7.48523H7.61877V9.48523ZM5.61877 21.4852C5.06877 21.4852 4.59794 21.2894 4.20627 20.8977C3.81461 20.5061 3.61877 20.0352 3.61877 19.4852V5.48523C3.61877 4.93523 3.81461 4.4644 4.20627 4.07273C4.59794 3.68106 5.06877 3.48523 5.61877 3.48523H19.6188C20.1688 3.48523 20.6396 3.68106 21.0313 4.07273C21.4229 4.4644 21.6188 4.93523 21.6188 5.48523V19.4852C21.6188 20.0352 21.4229 20.5061 21.0313 20.8977C20.6396 21.2894 20.1688 21.4852 19.6188 21.4852H5.61877ZM5.61877 19.4852H19.6188V5.48523H5.61877V19.4852Z" fill="#1C1B1F"/>
</g>
</svg>
