<svg width="30" height="30" viewBox="0 0 30 30" fill="none" xmlns="http://www.w3.org/2000/svg">
<path d="M3.54143 22.8029C3.54143 22.807 3.54143 22.8146 3.53674 22.8252C3.5385 22.8182 3.53967 22.8105 3.54143 22.8029ZM25.7754 23.7656C25.5825 23.7615 25.392 23.7217 25.2135 23.6484L21.8865 22.4689L21.8619 22.459C21.7894 22.4287 21.7114 22.4136 21.6328 22.4145C21.5604 22.4145 21.4885 22.4276 21.4207 22.4531C21.3399 22.4836 20.6115 22.7572 19.8475 22.967C19.4332 23.0807 17.9912 23.4516 16.834 23.4516C13.8762 23.4516 11.1106 22.3148 9.04749 20.2506C8.03962 19.2489 7.24045 18.0573 6.69623 16.7446C6.15201 15.432 5.87355 14.0245 5.87698 12.6035C5.87695 11.8631 5.95671 11.1249 6.11487 10.4016C6.62991 8.02149 7.99397 5.85645 9.95569 4.30781C11.968 2.72932 14.4522 1.87256 17.0098 1.875C20.069 1.875 22.9196 3.04688 25.0371 5.1668C27.0387 7.17481 28.1356 9.81504 28.1268 12.6006C28.125 14.6705 27.507 16.6929 26.3514 18.4102L26.3403 18.4266L26.2969 18.4852C26.2869 18.4986 26.277 18.5115 26.2676 18.525L26.2588 18.5408C26.2355 18.5805 26.2144 18.6213 26.1955 18.6633L27.1178 21.941C27.1586 22.0762 27.1807 22.2164 27.1834 22.3576C27.1837 22.5426 27.1474 22.7258 27.0767 22.8967C27.006 23.0676 26.9023 23.223 26.7715 23.3537C26.6408 23.4845 26.4854 23.5882 26.3145 23.6589C26.1436 23.7296 25.9604 23.7659 25.7754 23.7656Z" fill="black"/>
<path d="M17.5705 24.9252C17.51 24.8074 17.4248 24.7041 17.3208 24.6222C17.2167 24.5403 17.0963 24.4818 16.9676 24.4506C16.6289 24.3609 16.234 24.3762 15.9323 24.3539C13.083 24.1558 10.4018 22.933 8.38421 20.9115C6.5905 19.1279 5.42478 16.8098 5.06253 14.3062C4.9805 13.7355 4.9805 13.5937 4.9805 13.5937C4.98046 13.4033 4.92245 13.2175 4.81417 13.0608C4.70589 12.9042 4.55249 12.7842 4.37437 12.7169C4.19625 12.6496 4.00186 12.6382 3.81706 12.6841C3.63226 12.7299 3.46582 12.831 3.33987 12.9738C3.33987 12.9738 2.87815 13.4766 2.66019 13.9811C2.04887 15.3896 1.78816 16.9253 1.90042 18.4567C2.01267 19.988 2.49454 21.4693 3.30472 22.7736C3.45706 23.0273 3.45706 23.1445 3.42308 23.4082C3.26311 24.235 2.98304 25.6934 2.83714 26.4498C2.78883 26.6951 2.8068 26.9489 2.88919 27.1849C2.97159 27.421 3.11542 27.6308 3.30589 27.7928L3.33284 27.8156C3.5848 28.0157 3.89702 28.1248 4.21878 28.125C4.39976 28.1252 4.57898 28.0895 4.74612 28.0201L7.88147 26.8102C7.98943 26.7691 8.10868 26.7691 8.21663 26.8102C9.4512 27.2695 10.7362 27.5133 11.9537 27.5133C13.4708 27.5147 14.9695 27.1814 16.343 26.5371C16.6629 26.3871 17.1633 26.2242 17.4563 25.8855C17.5672 25.7542 17.6371 25.5932 17.6574 25.4225C17.6777 25.2518 17.6475 25.0789 17.5705 24.9252Z" fill="black"/>
</svg>
