<svg width="30" height="30" viewBox="0 0 30 30" fill="none" xmlns="http://www.w3.org/2000/svg">
<path d="M21.5625 2.8125H20.8939C20.7998 2.81241 20.7078 2.78396 20.6301 2.73087C20.5523 2.67778 20.4924 2.6025 20.458 2.51484C20.2779 2.0507 19.9618 1.65177 19.5511 1.37032C19.1404 1.08887 18.6543 0.938006 18.1564 0.9375H11.8436C11.3457 0.938006 10.8596 1.08887 10.4489 1.37032C10.0382 1.65177 9.72211 2.0507 9.54199 2.51484C9.50763 2.6025 9.44766 2.67778 9.3699 2.73087C9.29215 2.78396 9.20021 2.81241 9.10605 2.8125H8.4375C7.44294 2.8125 6.48911 3.20759 5.78585 3.91085C5.08259 4.61411 4.6875 5.56794 4.6875 6.5625V25.3125C4.6875 26.3071 5.08259 27.2609 5.78585 27.9641C6.48911 28.6674 7.44294 29.0625 8.4375 29.0625H21.5625C22.5571 29.0625 23.5109 28.6674 24.2141 27.9641C24.9174 27.2609 25.3125 26.3071 25.3125 25.3125V6.5625C25.3125 5.56794 24.9174 4.61411 24.2141 3.91085C23.5109 3.20759 22.5571 2.8125 21.5625 2.8125ZM18.7424 6.5625H11.2576C11.009 6.5625 10.7705 6.46373 10.5947 6.28791C10.4189 6.1121 10.3201 5.87364 10.3201 5.625C10.3201 5.37636 10.4189 5.1379 10.5947 4.96209C10.7705 4.78627 11.009 4.6875 11.2576 4.6875H18.7424C18.991 4.6875 19.2295 4.78627 19.4053 4.96209C19.5811 5.1379 19.6799 5.37636 19.6799 5.625C19.6799 5.87364 19.5811 6.1121 19.4053 6.28791C19.2295 6.46373 18.991 6.5625 18.7424 6.5625Z" fill="#545454"/>
</svg>
