<svg width="12" height="12" viewBox="0 0 12 12" fill="none" xmlns="http://www.w3.org/2000/svg">
<path d="M7.02551 10.3665C6.70052 10.4573 6.10805 10.5919 5.66802 10.5919C2.90127 10.5919 0.75 8.34368 0.75 5.64169C0.750176 5.30505 0.785851 4.9694 0.856413 4.64051C1.32808 2.42155 3.34131 0.75 5.7543 0.75C8.52105 0.75 10.7586 2.9397 10.75 5.63876C10.7491 6.58059 10.4613 7.46863 9.94469 8.25C9.92292 8.27909 9.91426 8.34158 9.89579 8.37295C9.8354 8.47834 9.86703 8.36939 9.89579 8.47477L10.2726 10.4368C10.2801 10.4625 10.2849 10.489 10.2869 10.5158C10.2869 10.5779 10.2627 10.6375 10.2195 10.6814C10.1764 10.7253 10.1179 10.75 10.0568 10.75C10.0182 10.746 9.98043 10.7361 9.94469 10.7207L7.625 10.125C6.93603 10.3592 5.86346 10.5896 5.76377 10.59C5.6724 10.5901 7.111 10.3337 7.02551 10.3665ZM7.02551 10.3665C7.3505 10.2758 6.9421 10.3987 7.02551 10.3665Z" stroke="#111111" stroke-width="1.5" stroke-miterlimit="10" stroke-linecap="round"/>
</svg>
