<svg width="30" height="30" viewBox="0 0 30 30" fill="none" xmlns="http://www.w3.org/2000/svg">
<path d="M19.9659 20.185C20.3122 18.9721 20.5413 17.5629 20.6286 16.21C20.6305 16.1746 20.6252 16.1393 20.6128 16.1061C20.6005 16.0729 20.5815 16.0426 20.557 16.017C20.5325 15.9915 20.5031 15.9712 20.4704 15.9576C20.4378 15.9439 20.4026 15.9371 20.3672 15.9375H16.2036C16.1695 15.9372 16.1357 15.9436 16.1041 15.9564C16.0725 15.9691 16.0437 15.988 16.0193 16.0119C15.995 16.0358 15.9756 16.0642 15.9623 16.0956C15.949 16.127 15.942 16.1606 15.9417 16.1947V19.435C15.9424 19.5004 15.9678 19.5632 16.0127 19.6108C16.0577 19.6583 16.1189 19.6872 16.1842 19.6916C17.3576 19.7864 18.5169 20.0102 19.6413 20.359C19.7074 20.3789 19.7787 20.3717 19.8396 20.3391C19.9004 20.3065 19.9458 20.251 19.9659 20.185ZM18.9598 22.108C18.0678 21.8476 17.1538 21.6693 16.2294 21.5754C16.1936 21.5714 16.1575 21.5749 16.1232 21.5856C16.0889 21.5964 16.0572 21.6141 16.0302 21.6378C16.0031 21.6614 15.9813 21.6904 15.966 21.7229C15.9508 21.7555 15.9425 21.7908 15.9417 21.8268V25.6494C15.9431 25.695 15.9564 25.7395 15.9802 25.7783C16.0041 25.8172 16.0377 25.8492 16.0777 25.8711C16.1177 25.893 16.1628 25.9041 16.2084 25.9032C16.254 25.9024 16.2986 25.8896 16.3378 25.8662C17.2694 25.3231 18.037 24.4108 18.7307 23.2043C18.8444 23.0074 19.0172 22.6682 19.1215 22.4608C19.1377 22.4274 19.1463 22.3908 19.1468 22.3538C19.1472 22.3167 19.1394 22.2799 19.1239 22.2462C19.1084 22.2125 19.0857 22.1826 19.0573 22.1587C19.029 22.1348 18.9957 22.1175 18.9598 22.108ZM13.7866 21.5859C12.8632 21.6738 11.95 21.8468 11.0585 22.1027C10.9038 22.1473 10.8387 22.3606 10.909 22.5006C11.0139 22.7092 11.1434 22.9758 11.2542 23.175C12.0159 24.5227 12.8268 25.3723 13.6706 25.8662C13.7097 25.8896 13.7543 25.9024 13.7999 25.9032C13.8456 25.9041 13.8906 25.893 13.9306 25.8711C13.9706 25.8492 14.0042 25.8172 14.0281 25.7783C14.052 25.7395 14.0653 25.695 14.0667 25.6494V21.825C14.0664 21.7901 14.0586 21.7556 14.0438 21.724C14.0291 21.6924 14.0077 21.6642 13.9812 21.6416C13.9546 21.6189 13.9235 21.6022 13.8899 21.5926C13.8563 21.583 13.8211 21.5807 13.7866 21.5859ZM13.8047 15.9375H9.64107C9.60573 15.9371 9.57067 15.9439 9.53806 15.9575C9.50546 15.9712 9.47599 15.9913 9.4515 16.0168C9.42701 16.0423 9.408 16.0725 9.39566 16.1057C9.38332 16.1388 9.3779 16.1741 9.37975 16.2094C9.46647 17.5606 9.6944 18.9727 10.0395 20.1844C10.0493 20.2175 10.0656 20.2484 10.0874 20.2753C10.1092 20.3021 10.1361 20.3243 10.1666 20.3407C10.197 20.357 10.2304 20.3672 10.2649 20.3705C10.2993 20.3739 10.334 20.3703 10.3671 20.3602C11.4913 20.0114 12.6507 19.7882 13.8241 19.6945C13.8895 19.6903 13.9509 19.6615 13.996 19.6139C14.041 19.5663 14.0665 19.5034 14.0672 19.4379V16.1953C14.067 16.1611 14.06 16.1273 14.0467 16.0958C14.0334 16.0644 14.014 16.0358 13.9896 16.0119C13.9652 15.9879 13.9363 15.969 13.9046 15.9563C13.8729 15.9435 13.8389 15.9371 13.8047 15.9375ZM16.2305 8.42462C17.1544 8.33805 18.0672 8.15863 18.9551 7.88907C18.9908 7.87944 19.0239 7.86209 19.0521 7.83825C19.0802 7.81442 19.1029 7.78468 19.1183 7.75114C19.1337 7.7176 19.1416 7.68108 19.1413 7.64417C19.1411 7.60725 19.1327 7.57084 19.1169 7.53751C19.012 7.32833 18.8667 7.02892 18.7553 6.82911C18.0352 5.54005 17.2237 4.64063 16.3389 4.1338C16.2997 4.11059 16.2552 4.09798 16.2096 4.09721C16.1641 4.09643 16.1191 4.10753 16.0791 4.1294C16.0392 4.15127 16.0056 4.18317 15.9817 4.22195C15.9578 4.26073 15.9444 4.30507 15.9428 4.3506V8.17267C15.9437 8.20861 15.952 8.24399 15.9672 8.27655C15.9824 8.30912 16.0043 8.33817 16.0313 8.36186C16.0584 8.38554 16.09 8.40335 16.1243 8.41416C16.1586 8.42496 16.1948 8.42852 16.2305 8.42462ZM16.2036 14.0625H20.3672C20.4023 14.0631 20.4372 14.0565 20.4696 14.0431C20.502 14.0298 20.5314 14.0099 20.5559 13.9848C20.5804 13.9596 20.5994 13.9298 20.6119 13.897C20.6244 13.8642 20.6301 13.8292 20.6286 13.7942C20.5419 12.46 20.3198 10.9934 19.9747 9.79688C19.9646 9.76399 19.9481 9.73341 19.9261 9.7069C19.9042 9.68039 19.8772 9.65848 19.8468 9.64242C19.8164 9.62636 19.7831 9.61647 19.7488 9.61331C19.7145 9.61016 19.68 9.6138 19.6471 9.62403C18.5338 9.96036 17.3743 10.2352 16.1848 10.3272C16.1198 10.3308 16.0586 10.359 16.0135 10.4059C15.9684 10.4529 15.9427 10.5152 15.9417 10.5803V13.8094C15.9429 13.8777 15.9712 13.9427 16.0203 13.9901C16.0694 14.0376 16.1353 14.0636 16.2036 14.0625ZM13.6706 4.13438C12.7671 4.63653 11.9614 5.56583 11.2407 6.85138C11.1288 7.05118 10.9952 7.32657 10.8891 7.53517C10.8734 7.56851 10.8651 7.6049 10.8649 7.64179C10.8647 7.67867 10.8726 7.71515 10.888 7.74866C10.9034 7.78217 10.926 7.8119 10.9541 7.83575C10.9822 7.8596 11.0153 7.877 11.0508 7.88673C11.9384 8.16124 12.8524 8.34133 13.7778 8.42403C13.8135 8.42794 13.8496 8.42439 13.8839 8.41362C13.9181 8.40285 13.9498 8.38509 13.9768 8.36147C14.0038 8.33784 14.0257 8.30887 14.0409 8.27637C14.0562 8.24387 14.0646 8.20856 14.0655 8.17267V4.35118C14.0636 4.3059 14.0501 4.26186 14.0262 4.22334C14.0024 4.18482 13.969 4.15311 13.9292 4.13131C13.8895 4.1095 13.8448 4.09832 13.7995 4.09886C13.7542 4.0994 13.7098 4.11164 13.6706 4.13438ZM13.8235 10.3277C12.634 10.2369 11.4733 9.96212 10.3612 9.62462C10.3283 9.61439 10.2938 9.61074 10.2595 9.6139C10.2253 9.61705 10.192 9.62695 10.1615 9.64301C10.1311 9.65907 10.1041 9.68098 10.0822 9.70749C10.0602 9.73399 10.0437 9.76457 10.0337 9.79747C9.68854 10.994 9.46647 12.4606 9.37975 13.7947C9.37822 13.8298 9.38389 13.8648 9.39639 13.8976C9.40889 13.9303 9.42797 13.9602 9.45245 13.9854C9.47692 14.0105 9.50629 14.0304 9.53872 14.0437C9.57116 14.0571 9.60599 14.0637 9.64107 14.0631H13.8047C13.8387 14.0636 13.8723 14.0575 13.9039 14.045C13.9354 14.0325 13.9641 14.0139 13.9885 13.9903C14.0128 13.9667 14.0322 13.9385 14.0456 13.9073C14.0591 13.8762 14.0662 13.8427 14.0667 13.8088V10.5809C14.0656 10.5158 14.0399 10.4535 13.9948 10.4065C13.9497 10.3596 13.8885 10.3314 13.8235 10.3277Z" fill="#545454"/>
<path d="M24.2807 5.71934C23.0641 4.49072 21.6168 3.51459 20.0218 2.84702C18.4268 2.17946 16.7157 1.83361 14.9866 1.82935C13.2576 1.8251 11.5448 2.16252 9.94655 2.82222C8.34832 3.48193 6.89618 4.45093 5.67357 5.67354C4.45096 6.89615 3.48196 8.34829 2.82225 9.94652C2.16255 11.5448 1.82513 13.2576 1.82939 14.9866C1.83364 16.7156 2.17949 18.4268 2.84705 20.0218C3.51462 21.6167 4.49075 23.0641 5.71937 24.2807C6.93595 25.5093 8.38329 26.4854 9.97826 27.153C11.5732 27.8205 13.2844 28.1664 15.0134 28.1706C16.7424 28.1749 18.4553 27.8375 20.0535 27.1778C21.6517 26.5181 23.1039 25.5491 24.3265 24.3265C25.5491 23.1038 26.5181 21.6517 27.1778 20.0535C27.8375 18.4552 28.1749 16.7424 28.1707 15.0134C28.1664 13.2843 27.8206 11.5732 27.153 9.97823C26.4854 8.38326 25.5093 6.93592 24.2807 5.71934ZM10.3477 25.2451C10.0837 24.8744 9.83959 24.4898 9.61644 24.0932C9.49925 23.877 9.33284 23.5506 9.2221 23.3238C9.19672 23.27 9.16038 23.2221 9.11541 23.1832C9.07045 23.1443 9.01784 23.1152 8.96098 23.0977C8.90411 23.0803 8.84422 23.0749 8.78516 23.082C8.7261 23.089 8.66917 23.1083 8.618 23.1387C8.36605 23.2799 8.03206 23.4738 7.79007 23.6326C7.28259 23.2469 6.81942 22.8061 6.40901 22.3184C6.97657 21.9178 7.57203 21.5583 8.19085 21.2426C8.29983 21.184 8.35316 21.1172 8.31858 20.9977C7.8652 19.4285 7.58829 17.8136 7.493 16.183C7.49016 16.1178 7.46247 16.0562 7.41562 16.0107C7.36877 15.9653 7.30631 15.9395 7.24105 15.9387H3.91644C3.88817 15.939 3.86075 15.9291 3.83922 15.9108C3.81768 15.8925 3.80349 15.867 3.79925 15.8391C3.76243 15.5609 3.74598 15.2805 3.75003 15C3.74602 14.72 3.76287 14.4402 3.80042 14.1627C3.80466 14.1348 3.81885 14.1093 3.84039 14.091C3.86192 14.0727 3.88935 14.0628 3.91761 14.0631H7.24222C7.3764 14.0631 7.48655 13.9857 7.49358 13.8504C7.58761 12.2266 7.86276 10.6184 8.3139 9.05566C8.3307 8.99862 8.32707 8.93751 8.30365 8.88285C8.28023 8.82819 8.23847 8.78342 8.18558 8.75625C7.58005 8.44598 6.99594 8.09559 6.43714 7.70742C6.84536 7.2198 7.29939 6.77245 7.793 6.37148C8.03206 6.52851 8.34378 6.70605 8.59339 6.84668C8.6484 6.87795 8.70924 6.89759 8.77214 6.90439C8.83505 6.9112 8.89868 6.90501 8.9591 6.88623C9.01952 6.86744 9.07544 6.83646 9.1234 6.79518C9.17136 6.75391 9.21034 6.70323 9.23792 6.64629C9.34808 6.41953 9.4723 6.16699 9.593 5.95019C9.81712 5.54861 10.0624 5.15919 10.3278 4.78359C11.7887 4.09531 13.3851 3.74218 15 3.75C16.6957 3.75 18.2754 4.16016 19.7186 4.83164C19.9734 5.18941 20.2082 5.56108 20.4217 5.94492C20.5735 6.21797 20.7346 6.55254 20.8705 6.84258C20.8851 6.87346 20.9059 6.90105 20.9315 6.92365C20.9571 6.94625 20.9871 6.9634 21.0195 6.97403C21.052 6.98467 21.0863 6.98858 21.1203 6.98552C21.1543 6.98247 21.1874 6.97251 21.2174 6.95625C21.5326 6.78574 21.8743 6.58945 22.1748 6.39199C22.6698 6.79689 23.125 7.24816 23.5342 7.73965C22.9907 8.11657 22.4218 8.45547 21.8315 8.75391C21.7785 8.78111 21.7367 8.82601 21.7134 8.88081C21.69 8.93561 21.6866 8.99686 21.7037 9.05391C22.1622 10.606 22.4346 12.2071 22.5153 13.8234C22.5184 13.8883 22.5463 13.9494 22.5932 13.9943C22.64 14.0392 22.7023 14.0645 22.7672 14.0648L26.0848 14.0607C26.1131 14.0604 26.1405 14.0703 26.162 14.0886C26.1836 14.1069 26.1977 14.1324 26.202 14.1604C26.2703 14.7172 26.2703 15.2804 26.202 15.8373C26.198 15.8655 26.1839 15.8912 26.1624 15.9098C26.1408 15.9283 26.1132 15.9384 26.0848 15.9381H22.7643C22.699 15.9388 22.6364 15.9645 22.5896 16.01C22.5427 16.0554 22.515 16.1172 22.5123 16.1824C22.4211 17.7958 22.1485 19.3937 21.6996 20.9461C21.6827 21.0038 21.6862 21.0656 21.7096 21.121C21.7329 21.1765 21.7748 21.2221 21.828 21.2502C22.1209 21.402 22.4473 21.5713 22.7285 21.7436C23.0098 21.9158 23.2881 22.0998 23.5565 22.2908C23.1505 22.78 22.6992 23.2298 22.2088 23.6344C22.0659 23.54 21.8959 23.4328 21.7494 23.3449C21.6487 23.2863 21.4629 23.1826 21.3598 23.1246C21.136 22.9992 20.8981 23.093 20.7862 23.3238C20.6742 23.5547 20.5032 23.8857 20.3836 24.1002C20.1634 24.4945 19.9218 24.8765 19.66 25.2445C18.2174 25.9201 16.6957 26.25 15 26.25C13.3043 26.25 11.7909 25.9201 10.3477 25.2451Z" fill="#545454"/>
</svg>
