<svg width="30" height="30" viewBox="0 0 30 30" fill="none" xmlns="http://www.w3.org/2000/svg">
<path d="M25.1637 1.87911C23.7809 2.26173 13.1197 5.32501 10.4836 6.06446C10.4346 6.07821 10.3914 6.10754 10.3605 6.14803C10.3296 6.18852 10.3128 6.23796 10.3125 6.28887V20.7615C10.3126 20.7858 10.3051 20.8095 10.2911 20.8293C10.2772 20.8491 10.2574 20.8641 10.2346 20.8723L8.60273 21.4318C7.48945 21.8678 4.6875 22.4092 4.6875 24.9C4.6875 26.9824 6.13066 27.9199 7.37461 28.0805C7.52575 28.1076 7.67873 28.1233 7.83223 28.1273C8.26406 28.1273 9.96387 27.7125 10.9553 27.068C12.1875 26.2647 12.1875 26.25 12.1875 24.1406V11.8359C12.1875 11.7832 12.2238 11.7867 12.2742 11.7732L23.2898 8.73106C23.3076 8.72617 23.3262 8.72553 23.3443 8.72919C23.3623 8.73284 23.3792 8.7407 23.3936 8.75211C23.4081 8.76352 23.4196 8.77817 23.4273 8.79487C23.4351 8.81157 23.4387 8.82986 23.4381 8.84825V17.9619C23.438 17.9864 23.4303 18.0102 23.416 18.0301C23.4017 18.0499 23.3816 18.0648 23.3584 18.0727C22.8369 18.2484 22.2316 18.4535 21.8068 18.607C20.0033 19.2586 17.8125 19.667 17.8125 22.0313C17.8125 24.2877 19.4684 25.2293 20.5254 25.3025C20.9428 25.3342 21.3626 25.3145 21.7752 25.2439C22.3025 25.1631 23.1867 24.8982 24.01 24.3732C25.3125 23.5424 25.3125 23.526 25.3125 21.0938V1.99219C25.3125 1.97408 25.3084 1.95621 25.3003 1.93998C25.2923 1.92374 25.2806 1.90959 25.2662 1.89864C25.2518 1.88768 25.235 1.88021 25.2172 1.87682C25.1994 1.87344 25.1811 1.87422 25.1637 1.87911Z" fill="#545454"/>
</svg>
