<svg width="37" height="44" viewBox="0 0 37 44" fill="none" xmlns="http://www.w3.org/2000/svg">
<path d="M24.7165 34.0625V35.625C24.7165 37.2826 24.0581 38.8723 22.886 40.0444C21.7139 41.2165 20.1241 41.875 18.4665 41.875C16.8089 41.875 15.2192 41.2165 14.0471 40.0444C12.875 38.8723 12.2165 37.2826 12.2165 35.625V34.0625M35.2322 30.8818C32.7244 27.8125 30.9538 26.25 30.9538 17.7881C30.9538 10.0391 26.9968 7.27832 23.74 5.9375C23.3074 5.75977 22.9001 5.35156 22.7683 4.90723C22.197 2.96289 20.5955 1.25 18.4665 1.25C16.3376 1.25 14.7351 2.96387 14.1697 4.90918C14.0378 5.3584 13.6306 5.75977 13.198 5.9375C9.93725 7.28027 5.98412 10.0313 5.98412 17.7881C5.97924 26.25 4.20873 27.8125 1.70092 30.8818C0.66186 32.1533 1.57202 34.0625 3.3894 34.0625H33.5535C35.3611 34.0625 36.2654 32.1475 35.2322 30.8818Z" stroke="#545454" stroke-width="2.5" stroke-linecap="round" stroke-linejoin="round"/>
</svg>
