<svg width="29" height="29" viewBox="0 0 29 29" fill="none" xmlns="http://www.w3.org/2000/svg">
<path fill-rule="evenodd" clip-rule="evenodd" d="M22.1926 24.3534C20.0714 26.0117 17.4011 27 14.5 27C11.5988 27 8.92852 26.0117 6.80738 24.3533C8.72466 22.2905 11.4616 21 14.4999 21C17.5383 21 20.2753 22.2905 22.1926 24.3534ZM23.6652 23C21.3824 20.5397 18.1209 19 14.4999 19C10.879 19 7.61758 20.5396 5.33474 23C3.26528 20.7696 2 17.7825 2 14.5C2 7.59644 7.59644 2 14.5 2C21.4036 2 27 7.59644 27 14.5C27 17.7826 25.7347 20.7696 23.6652 23ZM29 14.5C29 22.5081 22.5081 29 14.5 29C6.49187 29 0 22.5081 0 14.5C0 6.49187 6.49187 0 14.5 0C22.5081 0 29 6.49187 29 14.5Z" fill="black"/>
<path d="M14.6475 7.59375C15.7928 7.59375 16.8082 8.02592 17.5273 8.78906C18.2549 9.56179 18.6203 10.609 18.5342 11.7607C18.3547 14.1404 16.5293 15.9375 14.6475 15.9375C12.8237 15.9374 11.0518 14.2503 10.7832 11.9824L10.7617 11.7617C10.6782 10.5922 11.0495 9.53417 11.7598 8.78125C12.4737 8.02454 13.4902 7.5938 14.6475 7.59375Z" stroke="black" stroke-width="1.5"/>
</svg>
