<svg width="30" height="30" viewBox="0 0 30 30" fill="none" xmlns="http://www.w3.org/2000/svg">
<path d="M15 21.5625C14.8368 21.5625 14.6764 21.5199 14.5348 21.4389L6.32813 16.7484C6.25682 16.7073 6.17592 16.6856 6.09358 16.6856C6.01124 16.6857 5.93036 16.7074 5.85908 16.7486C5.7878 16.7898 5.72863 16.8491 5.68754 16.9205C5.64645 16.9918 5.62488 17.0727 5.625 17.1551V21.5625C5.62486 21.7298 5.66951 21.8941 5.7543 22.0384C5.8391 22.1826 5.96096 22.3016 6.10723 22.3828L14.5447 27.0703C14.684 27.1477 14.8407 27.1883 15 27.1883C15.1593 27.1883 15.316 27.1477 15.4553 27.0703L23.8928 22.3828C24.039 22.3016 24.1609 22.1826 24.2457 22.0384C24.3305 21.8941 24.3751 21.7298 24.375 21.5625V17.1551C24.3751 17.0727 24.3535 16.9918 24.3125 16.9205C24.2714 16.8491 24.2122 16.7898 24.1409 16.7486C24.0696 16.7074 23.9888 16.6857 23.9064 16.6856C23.8241 16.6856 23.7432 16.7073 23.6719 16.7484L15.4652 21.4389C15.3236 21.5199 15.1632 21.5625 15 21.5625Z" fill="black"/>
<path d="M29.0578 11.1621V11.1557C29.0426 11.0071 28.9922 10.8642 28.9107 10.7391C28.8291 10.6139 28.7189 10.51 28.589 10.4361L15.464 2.93613C15.3224 2.85515 15.162 2.81255 14.9988 2.81255C14.8356 2.81255 14.6753 2.85515 14.5336 2.93613L1.40858 10.4361C1.26513 10.5181 1.14591 10.6366 1.06299 10.7795C0.980073 10.9225 0.936401 11.0848 0.936401 11.25C0.936401 11.4152 0.980073 11.5775 1.06299 11.7205C1.14591 11.8634 1.26513 11.9819 1.40858 12.0639L14.5336 19.5639C14.6753 19.6448 14.8356 19.6874 14.9988 19.6874C15.162 19.6874 15.3224 19.6448 15.464 19.5639L27.0117 12.9656C27.0296 12.9553 27.0498 12.9499 27.0704 12.9499C27.091 12.9499 27.1113 12.9554 27.1291 12.9657C27.1469 12.9761 27.1617 12.9909 27.172 13.0088C27.1822 13.0267 27.1876 13.047 27.1875 13.0676V21.5361C27.1875 22.0406 27.5754 22.4736 28.0799 22.4988C28.2066 22.5049 28.3333 22.4852 28.4522 22.4409C28.5711 22.3966 28.6798 22.3287 28.7717 22.2411C28.8636 22.1536 28.9367 22.0483 28.9867 21.9316C29.0367 21.815 29.0625 21.6894 29.0625 21.5625V11.25C29.0624 11.2206 29.0609 11.1913 29.0578 11.1621Z" fill="black"/>
</svg>
